<svg width="46" height="46" viewBox="0 0 46 46" fill="none" xmlns="http://www.w3.org/2000/svg">
<path fill-rule="evenodd" clip-rule="evenodd" d="M27.5336 6.8125H29.6634H29.6646C30.272 6.8125 30.7583 7.30004 30.6984 7.84986V13.5661H16.3981V7.90616C16.3981 7.29884 16.8809 6.8125 17.4906 6.8125H19.6204C20.1104 5.11031 21.6904 3.83337 23.577 3.83337C25.4637 3.83337 27.0473 5.10912 27.5336 6.8125ZM32.5238 8.9435H34.7735C36.4169 8.9435 37.8173 10.2839 37.8173 11.9873V39.1229C37.8173 40.8298 36.4768 42.1667 34.7735 42.1667H12.6271C10.9201 42.1667 9.58325 40.8263 9.58325 39.1229V11.9873C9.58325 10.2803 10.9237 8.9435 12.6271 8.9435H14.697V11.0733H12.6271C12.1395 11.0733 11.7131 11.501 11.7131 11.9873V39.1229C11.7131 39.6092 12.1407 40.0357 12.6271 40.0357H34.7735C35.2598 40.0357 35.6862 39.6092 35.6862 39.1229V11.9873C35.6862 11.4998 35.2598 11.0733 34.7735 11.0733H32.5238V8.9435ZM28.6306 11.4399H18.5912V8.9435H20.5976C21.2073 8.9435 21.6314 8.45717 21.6901 7.91093C21.6901 6.81727 22.6029 5.96438 23.6366 5.96438C24.7303 5.96438 25.5832 6.81727 25.5832 7.91093C25.5832 8.52065 26.0695 8.9435 26.6769 8.9435H28.6833V11.4399H28.6306ZM25.957 27.5215H29.8058V23.5876H25.9534V19.7352H22.0195V23.5876H18.1672V27.5215H22.0231V31.3738H25.957V27.5215Z" fill="#1D1D1B"/>
<mask id="mask0" mask-type="alpha" maskUnits="userSpaceOnUse" x="9" y="3" width="29" height="40">
<path fill-rule="evenodd" clip-rule="evenodd" d="M27.5336 6.8125H29.6634H29.6646C30.272 6.8125 30.7583 7.30004 30.6984 7.84986V13.5661H16.3981V7.90616C16.3981 7.29884 16.8809 6.8125 17.4906 6.8125H19.6204C20.1104 5.11031 21.6904 3.83337 23.577 3.83337C25.4637 3.83337 27.0473 5.10912 27.5336 6.8125ZM32.5238 8.9435H34.7735C36.4169 8.9435 37.8173 10.2839 37.8173 11.9873V39.1229C37.8173 40.8298 36.4768 42.1667 34.7735 42.1667H12.6271C10.9201 42.1667 9.58325 40.8263 9.58325 39.1229V11.9873C9.58325 10.2803 10.9237 8.9435 12.6271 8.9435H14.697V11.0733H12.6271C12.1395 11.0733 11.7131 11.501 11.7131 11.9873V39.1229C11.7131 39.6092 12.1407 40.0357 12.6271 40.0357H34.7735C35.2598 40.0357 35.6862 39.6092 35.6862 39.1229V11.9873C35.6862 11.4998 35.2598 11.0733 34.7735 11.0733H32.5238V8.9435ZM28.6306 11.4399H18.5912V8.9435H20.5976C21.2073 8.9435 21.6314 8.45717 21.6901 7.91093C21.6901 6.81727 22.6029 5.96438 23.6366 5.96438C24.7303 5.96438 25.5832 6.81727 25.5832 7.91093C25.5832 8.52065 26.0695 8.9435 26.6769 8.9435H28.6833V11.4399H28.6306ZM25.957 27.5215H29.8058V23.5876H25.9534V19.7352H22.0195V23.5876H18.1672V27.5215H22.0231V31.3738H25.957V27.5215Z" fill="white"/>
</mask>
<g mask="url(#mask0)">
<rect width="46" height="46" fill="#B28800"/>
</g>
</svg>
