<svg width="34" height="40" viewBox="0 0 34 40" fill="none" xmlns="http://www.w3.org/2000/svg">
<path fill-rule="evenodd" clip-rule="evenodd" d="M31.4974 16.5238L30.4011 14.1555V11.5466L28.1669 9.30308L26.8393 6.43513L24.3877 5.53312L22.5374 3.68746H19.378L16.4037 2.59116L14.0399 3.68746H11.4259L9.18756 5.9263L6.31499 7.24926L5.41251 9.70552L3.56222 11.5466V14.7105L2.46593 17.6803L3.56222 20.0532V22.6622L5.80153 24.901L7.12449 27.7782L9.57566 28.6802L10.6535 29.7534L11.4259 30.5259H14.595L17.5601 31.6129L19.928 30.5259H22.5374L24.7762 28.287L27.653 26.9548L28.5554 24.5078L30.4011 22.6622V19.4982L31.4974 16.5238ZM21.0895 32.1495H20.2893L17.6295 33.38L14.3036 32.1495H12.9992V36.9834L16.3431 35.0036L17.0698 34.5734L21.0895 36.951V32.1495ZM33.2553 16.4591L32.029 19.7849V23.3375L29.9618 25.4052L28.9436 28.1482L25.7246 29.6377L23.2128 32.1495H22.2363V39.1575L17.0699 36.0999L11.8937 39.1667H11.8567V32.1495H10.7507L10.6535 32.0524L8.67883 30.0772L5.93069 29.0688L4.4463 25.8493L1.93453 23.3375V20.4094L0.708252 17.7543L1.93453 14.4191V10.8666L4.00223 8.80349L5.01989 6.05581L8.23939 4.56633L10.7507 2.05919H13.6788L16.3344 0.833374L19.6603 2.05919H23.2128L25.2847 4.12689L28.0328 5.13529L29.5219 8.36404L32.029 10.8666V13.7993L33.2553 16.4591ZM25.7474 16.9956C25.7474 12.1062 21.7698 8.12349 16.8758 8.12349C11.9818 8.12349 8.00319 12.1062 8.00319 16.9956C8.00319 21.8896 11.9818 25.8677 16.8758 25.8677C21.7698 25.8677 25.7474 21.8896 25.7474 16.9956V16.9956ZM27.1491 16.9956C27.1491 22.6622 22.5373 27.2689 16.8754 27.2689C11.213 27.2689 6.60167 22.6622 6.60167 16.9956C6.60167 11.3338 11.213 6.72655 16.8754 6.72655C22.5373 6.72655 27.1491 11.3338 27.1491 16.9956V16.9956ZM22.4242 12.4759L14.5461 23.233C14.5285 23.2589 14.5031 23.2765 14.4767 23.2936L14.3856 23.3241H14.3685C14.3375 23.3241 14.3074 23.3153 14.2811 23.307C14.2556 23.2894 14.2339 23.2765 14.2205 23.2589L9.93428 18.8163C9.9167 18.79 9.90375 18.7687 9.8908 18.7382C9.87784 18.7164 9.87322 18.6905 9.87322 18.6642C9.87322 18.6295 9.87784 18.5989 9.8908 18.573C9.90375 18.5471 9.9167 18.5254 9.93428 18.5078L10.9982 17.3916C11.0412 17.3481 11.0939 17.3264 11.1541 17.3264C11.2151 17.3264 11.2674 17.3481 11.3109 17.3916L14.1992 20.384L20.8783 11.2551C20.9083 11.2033 20.9564 11.1728 21.0175 11.164C21.0781 11.1599 21.1345 11.1682 21.1863 11.2033L22.39 12.1544C22.4071 12.1715 22.4242 12.1932 22.4371 12.2191C22.4547 12.2455 22.4635 12.2714 22.4635 12.2932C22.4677 12.3279 22.4677 12.3625 22.4635 12.3931C22.4547 12.4236 22.4418 12.4495 22.4242 12.4759V12.4759Z" fill="#008385"/>
</svg>
