<svg width="64" height="64" viewBox="0 0 64 64" fill="none" xmlns="http://www.w3.org/2000/svg">
<path fill-rule="evenodd" clip-rule="evenodd" d="M32 64C49.6731 64 64 49.6731 64 32C64 14.3269 49.6731 0 32 0C14.3269 0 0 14.3269 0 32C0 49.6731 14.3269 64 32 64Z" fill="#0079C7"/>
<path fill-rule="evenodd" clip-rule="evenodd" d="M42.468 46.548C42.468 47.736 41.58 48.768 39.684 48.924V50.28H38.916V48.924C37.74 48.864 36.624 48.456 36 47.88L36.444 46.944C37.008 47.46 37.944 47.844 38.916 47.904V45.12C37.596 44.796 36.204 44.376 36.204 42.744C36.204 41.556 37.056 40.524 38.916 40.368V39H39.684V40.356C40.584 40.392 41.484 40.656 42.12 41.088L41.724 42.048C41.076 41.64 40.356 41.412 39.684 41.376V44.172C41.028 44.508 42.468 44.904 42.468 46.548ZM37.38 42.696C37.38 43.44 38.052 43.752 38.916 43.98V41.388C37.848 41.52 37.38 42.06 37.38 42.696ZM39.684 47.892C40.8 47.784 41.292 47.268 41.292 46.62C41.292 45.852 40.572 45.552 39.684 45.312V47.892Z" fill="white"/>
<path fill-rule="evenodd" clip-rule="evenodd" d="M28.6871 47.9064L17.1487 47.9027V16.1649H42.6366V34.7731C43.3554 34.9881 44.0466 35.2693 44.6991 35.6168V15.2737C44.6991 14.57 44.1291 14 43.4254 14H16.2737C15.57 14 15 14.57 15 15.2737V48.8239C15 49.5276 15.57 50.0976 16.2737 50.0976H29.4445C29.1208 49.4026 28.8621 48.6714 28.6871 47.9064ZM31.2145 19.6848H40.4255V21.9385H31.2145V19.6848ZM36.8518 26.2121H40.4217V28.4658H36.8518V26.2121ZM28.7233 26.2121H20.0786V28.4658H28.7233V26.2121ZM35.1606 31.1257H40.4217V33.3794H35.1606V31.1257ZM27.5934 40.8329H22.3323V44.2153H27.5934V40.8329ZM20.0786 31.1257H32.1095V33.3794H20.0786V31.1257ZM48.0265 44.8128C48.0302 40.0667 43.8941 35.6218 38.8743 35.6218C33.7069 35.6218 29.7145 40.0667 29.7145 44.809C29.7145 49.5514 33.7069 54 38.8743 54C43.5966 54 48.0265 49.8476 48.0265 44.8128ZM38.8736 52.0738C43.0069 52.0735 46.1078 48.9637 46.1078 44.8128C46.1078 40.6617 43.0029 37.5518 38.8743 37.5518C34.7369 37.5518 31.632 40.6617 31.632 44.8128C31.632 48.9637 34.7378 52.0735 38.8736 52.0738Z" fill="white"/>
</svg>
