<?xml version="1.0" encoding="UTF-8"?>
<svg width="39px" height="27px" viewBox="0 0 39 27" version="1.1" xmlns="http://www.w3.org/2000/svg" xmlns:xlink="http://www.w3.org/1999/xlink">
    <!-- Generator: Sketch 55.2 (78181) - https://sketchapp.com -->
    <title>card</title>
    <desc>Created with Sketch.</desc>
    <g id="Page-1" stroke="none" stroke-width="1" fill="none" fill-rule="evenodd">
        <g id="home-E_01+Alertas" transform="translate(-507.000000, -671.000000)" fill="#939905" fill-rule="nonzero">
            <path d="M507,676.75 L545.333333,676.75 L545.333333,678.666667 L507,678.666667 L507,676.75 Z M522.333333,686.333333 L541.5,686.333333 L541.5,688.25 L522.333333,688.25 L522.333333,686.333333 Z M522.333333,690.166667 L535.75,690.166667 L535.75,692.083333 L522.333333,692.083333 L522.333333,690.166667 Z M507,680.583333 L545.333333,680.583333 L545.333333,682.5 L507,682.5 L507,680.583333 Z M510.833333,672.916667 C509.774788,672.916667 508.916667,673.774788 508.916667,674.833333 L508.916667,694 C508.916667,695.058546 509.774788,695.916667 510.833333,695.916667 L541.5,695.916667 C542.558546,695.916667 543.416667,695.058546 543.416667,694 L543.416667,674.833333 C543.416667,673.774788 542.558546,672.916667 541.5,672.916667 L510.833333,672.916667 Z M510.833333,671 L541.5,671 C543.617092,671 545.333333,672.716242 545.333333,674.833333 L545.333333,694 C545.333333,696.117092 543.617092,697.833333 541.5,697.833333 L510.833333,697.833333 C508.716242,697.833333 507,696.117092 507,694 L507,674.833333 C507,672.716242 508.716242,671 510.833333,671 Z" id="card"></path>
        </g>
    </g>
</svg>