<?xml version="1.0" encoding="UTF-8"?>
<svg width="24px" height="32px" viewBox="0 0 24 32" version="1.1" xmlns="http://www.w3.org/2000/svg" xmlns:xlink="http://www.w3.org/1999/xlink">
    <!-- Generator: Sketch 55.2 (78181) - https://sketchapp.com -->
    <title>report-2</title>
    <desc>Created with Sketch.</desc>
    <defs>
        <path d="M20.7292355,4.20518896 L18.878006,4.20518896 L18.878006,5.9578439 L20.7292355,5.9578439 C21.129448,5.9578439 21.4803733,6.30876918 21.4803733,6.70996747 L21.4803733,29.0400531 C21.4803733,29.4402657 21.129448,29.791191 20.7292355,29.791191 L2.50477851,29.791191 C2.10456597,29.791191 1.75265494,29.4402657 1.75265494,29.0400531 L1.75265494,6.70996747 C1.75265494,6.30975493 2.10358022,5.9578439 2.50477851,5.9578439 L4.20814619,5.9578439 L4.20814619,4.20518896 L2.50477851,4.20518896 C1.10304886,4.20518896 2.23820962e-13,5.30528058 2.23820962e-13,6.70996747 L2.23820962e-13,29.0400531 C2.23820962e-13,30.4417828 1.10009163,31.5448317 2.50477851,31.5448317 L20.7292355,31.5448317 C22.1309651,31.5448317 23.234014,30.44474 23.234014,29.0400531 L23.234014,6.70996747 C23.234014,5.30823782 22.0816779,4.20518896 20.7292355,4.20518896 Z M16.5240465,2.45154827 L14.7713916,2.45154827 C14.371179,1.04981862 13.0680239,-3.90798505e-14 11.5154752,-3.90798505e-14 C9.96292658,-3.90798505e-14 8.66272868,1.05080437 8.2595589,2.45154827 L6.50690396,2.45154827 C6.00515966,2.45154827 5.60790435,2.85176082 5.60790435,3.35153363 L5.60790435,8.00917962 L17.3757304,8.00917962 L17.3757304,3.3052036 C17.4250176,2.85274656 17.0248051,2.45154827 16.5250323,2.45154827 L16.5250323,2.45154827 L16.5240465,2.45154827 Z M15.6743342,6.25948192 L7.41280379,6.25948192 L7.41280379,4.20518896 L9.06392697,4.20518896 C9.56567127,4.20518896 9.91462507,3.80497641 9.96292658,3.35547661 C9.96292658,2.45549125 10.7140644,1.75364068 11.5647625,1.75364068 C12.4647479,1.75364068 13.1665984,2.45549125 13.1665984,3.35547661 C13.1665984,3.85722091 13.566811,4.20518896 14.0665838,4.20518896 L15.717707,4.20518896 L15.717707,6.25948192 L15.6743342,6.25948192 L15.6743342,6.25948192 Z M16.6443074,19.493111 L13.4741509,19.493111 L13.4741509,22.6632675 L10.2369637,22.6632675 L10.2369637,19.493111 L7.06384999,19.493111 L7.06384999,16.2559238 L10.2340065,16.2559238 L10.2340065,13.0857673 L13.4711937,13.0857673 L13.4711937,16.2559238 L16.6413502,16.2559238 L16.6413502,19.493111 L16.6443074,19.493111 Z" id="path-1"></path>
    </defs>
    <g id="Page-1" stroke="none" stroke-width="1" fill="none" fill-rule="evenodd">
        <g id="home-E_01+Alertas" transform="translate(-800.000000, -669.000000)">
            <g id="icons/misc/quality" transform="translate(800.000000, 669.000000)">
                <mask id="mask-2" fill="white">
                    <use xlink:href="#path-1"></use>
                </mask>
                <use id="report-2" fill="#B28800" fill-rule="nonzero" xlink:href="#path-1"></use>
            </g>
        </g>
    </g>
</svg>