<?xml version="1.0" encoding="UTF-8"?>
<svg width="39px" height="33px" viewBox="0 0 39 33" version="1.1" xmlns="http://www.w3.org/2000/svg" xmlns:xlink="http://www.w3.org/1999/xlink">
    <!-- Generator: Sketch 55.2 (78181) - https://sketchapp.com -->
    <title>fav_off</title>
    <desc>Created with Sketch.</desc>
    <g id="Page-1" stroke="none" stroke-width="1" fill="none" fill-rule="evenodd">
        <g id="home-E_01+Alertas" transform="translate(-506.000000, -668.000000)" fill="#C6007E" fill-rule="nonzero">
            <path d="M525.487534,700.368873 C524.432032,700.368873 523.728364,699.430649 523.024696,698.726981 C521.969194,697.788757 509.068613,685.24001 507.895833,683.129006 C505.432995,678.555164 507.074887,672.691263 511.531451,669.993869 C514.346124,668.234699 517.981742,668.000143 520.913692,669.524757 C522.79014,670.345703 524.080198,671.870317 525.487534,673.277653 C526.660314,672.104873 527.833094,670.814815 529.24043,669.876591 C531.703269,668.351977 534.987053,668.117421 537.684447,669.055645 C542.727401,670.932093 545.542073,676.678716 543.665625,681.72167 C542.727401,684.301786 540.733675,686.060956 538.857227,687.937404 C536.394389,690.400242 529.123152,697.671479 528.06765,698.726981 C527.363982,699.430649 526.543036,700.368873 525.487534,700.368873 Z M516.574406,671.166649 C512.704231,671.166649 509.185891,674.567712 509.185891,678.437886 C509.185891,680.783446 510.358671,682.542616 512.000563,684.184508 C515.401626,687.58557 524.432032,696.381421 525.487534,697.436923 C529.709542,693.332193 539.209061,684.06723 539.678173,683.48084 C541.789177,681.252558 542.375567,677.968774 540.968231,675.27138 C539.678173,672.691263 536.746223,670.932093 533.814273,671.166649 C531.351435,671.401205 529.709542,672.808541 528.06765,674.567712 C527.363982,675.27138 526.660314,676.209604 525.487534,676.209604 C524.54931,676.209604 523.845642,675.623214 523.141974,674.919546 C521.382804,672.925819 519.506356,671.166649 516.574406,671.166649 L516.574406,671.166649 Z" id="fav_off"></path>
        </g>
    </g>
</svg>