<?xml version="1.0" encoding="UTF-8"?>
<svg width="24px" height="28px" viewBox="0 0 24 28" version="1.1" xmlns="http://www.w3.org/2000/svg" xmlns:xlink="http://www.w3.org/1999/xlink">
    <!-- Generator: Sketch 55.2 (78181) - https://sketchapp.com -->
    <title>quality</title>
    <desc>Created with Sketch.</desc>
    <defs>
        <path d="M5.9345928,20.6666667 C4.32934036,18.972644 3.33333333,16.6115842 3.33333333,14 C3.33333333,8.8453423 7.2135322,4.66666667 12,4.66666667 C16.7864678,4.66666667 20.6666667,8.8453423 20.6666667,14 C20.6666667,16.6115842 19.6706596,18.972644 18.0654072,20.6666667 L22.6666667,20.6666667 C23.4030463,20.6666667 24,21.2636203 24,22 C24,22.7363797 23.4030463,23.3333333 22.6666667,23.3333333 L1.33333333,23.3333333 C0.59695367,23.3333333 0,22.7363797 0,22 C0,21.2636203 0.59695367,20.6666667 1.33333333,20.6666667 L5.9345928,20.6666667 Z M11.9822366,3.33333333 C11.2556674,3.33333333 10.6666667,2.73637967 10.6666667,2 C10.6666667,1.26362033 11.2556674,0.66666667 11.9822366,0.66666667 C12.7088058,0.66666667 13.2978065,1.26362033 13.2978065,2 C13.2978065,2.73637967 12.7088058,3.33333333 11.9822366,3.33333333 Z M9.3333333,24.6666667 L14.6666667,24.6666667 C14.6666667,26.139426 13.4727593,27.3333333 12,27.3333333 C10.5272407,27.3333333 9.3333333,26.139426 9.3333333,24.6666667 Z" id="path-1"></path>
    </defs>
    <g id="Page-1" stroke="none" stroke-width="1" fill="none" fill-rule="evenodd">
        <g id="quality">
            <g id="bell" fill="#C6007E" fill-rule="nonzero">
                <path d="M5.9345928,20.6666667 C4.32934036,18.972644 3.33333333,16.6115842 3.33333333,14 C3.33333333,8.8453423 7.2135322,4.66666667 12,4.66666667 C16.7864678,4.66666667 20.6666667,8.8453423 20.6666667,14 C20.6666667,16.6115842 19.6706596,18.972644 18.0654072,20.6666667 L22.6666667,20.6666667 C23.4030463,20.6666667 24,21.2636203 24,22 C24,22.7363797 23.4030463,23.3333333 22.6666667,23.3333333 L1.33333333,23.3333333 C0.59695367,23.3333333 0,22.7363797 0,22 C0,21.2636203 0.59695367,20.6666667 1.33333333,20.6666667 L5.9345928,20.6666667 Z M11.9822366,3.33333333 C11.2556674,3.33333333 10.6666667,2.73637967 10.6666667,2 C10.6666667,1.26362033 11.2556674,0.66666667 11.9822366,0.66666667 C12.7088058,0.66666667 13.2978065,1.26362033 13.2978065,2 C13.2978065,2.73637967 12.7088058,3.33333333 11.9822366,3.33333333 Z M3.33333333,14 L20.6666667,14 L20.6666667,23.3333333 L3.33333333,23.3333333 L3.33333333,14 Z M1.54573009,20.6666667 C2.5329961,20.6666667 3.33333333,19.8663294 3.33333333,18.8790634 C3.33333333,17.8917974 6.1082026,20.6666667 5.12093658,20.6666667 C4.13367057,20.6666667 3.33333333,21.4670039 3.33333333,22.4542699 C3.33333333,23.4415359 0.55846408,20.6666667 1.54573009,20.6666667 Z M9.3333333,24.6666667 L14.6666667,24.6666667 C14.6666667,26.139426 13.4727593,27.3333333 12,27.3333333 C10.5272407,27.3333333 9.3333333,26.139426 9.3333333,24.6666667 Z" id="path-1"></path>
            </g>
            <g id="fills/teal-Clipped">
                <mask id="mask-2" fill="white">
                    <use xlink:href="#path-1"></use>
                </mask>
                <g id="path-1"></g>
                <g id="fills/teal" mask="url(#mask-2)" fill="#C6007E">
                    <g transform="translate(-4.000000, -2.000000)" id="Rectangle">
                        <rect x="0" y="0" width="32" height="32"></rect>
                    </g>
                </g>
            </g>
        </g>
    </g>
</svg>