<?xml version="1.0" encoding="UTF-8"?>
<svg width="64px" height="64px" viewBox="0 0 64 64" version="1.1" xmlns="http://www.w3.org/2000/svg" xmlns:xlink="http://www.w3.org/1999/xlink">
    <!-- Generator: Sketch 55.2 (78181) - https://sketchapp.com -->
    <title>Group 18</title>
    <desc>Created with Sketch.</desc>
    <defs>
        <path d="M26.5294822,6.13790975 L24.2309602,6.13790975 L24.2309602,8.31403967 L26.5294822,8.31403967 C27.0263937,8.31403967 27.4621093,8.74975522 27.4621093,9.24789069 L27.4621093,36.9733524 C27.4621093,37.470264 27.0263937,37.9059795 26.5294822,37.9059795 L3.9016476,37.9059795 C3.40473605,37.9059795 2.96779658,37.470264 2.96779658,36.9733524 L2.96779658,9.24789069 C2.96779658,8.75097914 3.40351213,8.31403967 3.9016476,8.31403967 L6.01658151,8.31403967 L6.01658151,6.13790975 L3.9016476,6.13790975 C2.16123324,6.13790975 0.791666667,7.50380457 0.791666667,9.24789069 L0.791666667,36.9733524 C0.791666667,38.7137668 2.15756148,40.0833333 3.9016476,40.0833333 L26.5294822,40.0833333 C28.2698965,40.0833333 29.6394631,38.7174385 29.6394631,36.9733524 L29.6394631,9.24789069 C29.6394631,7.50747633 28.2087005,6.13790975 26.5294822,6.13790975 Z M21.3082391,3.96055592 L19.1321092,3.96055592 C18.6351976,2.22014156 17.0171752,0.916666667 15.0895011,0.916666667 C13.161827,0.916666667 11.5474764,2.22136548 11.0468931,3.96055592 L8.87076315,3.96055592 C8.24778783,3.96055592 7.75454803,4.45746747 7.75454803,5.07799496 L7.75454803,10.8610174 L22.365706,10.8610174 L22.365706,5.02047071 C22.426902,4.4586914 21.9299905,3.96055592 21.309463,3.96055592 L21.309463,3.96055592 L21.3082391,3.96055592 Z M20.25322,8.68855921 L9.99554571,8.68855921 L9.99554571,6.13790975 L12.0456119,6.13790975 C12.6685872,6.13790975 13.1018549,5.6409982 13.161827,5.08289064 C13.161827,3.9654516 14.0944541,3.0940205 15.1506971,3.0940205 C16.2681362,3.0940205 17.1395673,3.9654516 17.1395673,5.08289064 C17.1395673,5.70586596 17.6364788,6.13790975 18.2570063,6.13790975 L20.3070724,6.13790975 L20.3070724,8.68855921 L20.25322,8.68855921 L20.25322,8.68855921 Z M21.4575573,25.1196864 L17.5214303,25.1196864 L17.5214303,29.0558134 L13.5020768,29.0558134 L13.5020768,25.1196864 L9.562278,25.1196864 L9.562278,21.1003328 L13.498405,21.1003328 L13.498405,17.1642058 L17.5177586,17.1642058 L17.5177586,21.1003328 L21.4538856,21.1003328 L21.4538856,25.1196864 L21.4575573,25.1196864 Z" id="path-1"></path>
    </defs>
    <g id="Page-1" stroke="none" stroke-width="1" fill="none" fill-rule="evenodd">
        <g id="home-E_01+Alertas" transform="translate(-1099.000000, -421.000000)">
            <g id="Group-18" transform="translate(1099.000000, 421.000000)">
                <circle id="Oval-2" fill="#0079C7" cx="32" cy="32" r="32"></circle>
                <g id="icons/misc/quality" transform="translate(17.000000, 11.000000)">
                    <mask id="mask-2" fill="white">
                        <use xlink:href="#path-1"></use>
                    </mask>
                    <use id="report-2" fill="#FFFFFF" fill-rule="nonzero" xlink:href="#path-1"></use>
                </g>
            </g>
        </g>
    </g>
</svg>