<svg width="64" height="64" viewBox="0 0 64 64" fill="none" xmlns="http://www.w3.org/2000/svg">
<path fill-rule="evenodd" clip-rule="evenodd" d="M32 64C49.6731 64 64 49.6731 64 32C64 14.3269 49.6731 0 32 0C14.3269 0 0 14.3269 0 32C0 49.6731 14.3269 64 32 64Z" fill="#0079C7"/>
<path fill-rule="evenodd" clip-rule="evenodd" d="M48.1667 17.7916H16.8334C14.6703 17.7916 12.9167 19.5452 12.9167 21.7083V23.6666H14.8751V25.625H12.9167V27.5833H14.8751V29.5416H12.9167V41.2916C12.9167 43.4547 14.6703 45.2083 16.8334 45.2083H48.1667C50.3299 45.2083 52.0834 43.4547 52.0834 41.2916V29.5416H50.1251V27.5833H52.0834V25.625H50.1251V23.6666H52.0834V21.7083C52.0834 19.5452 50.3299 17.7916 48.1667 17.7916ZM50.1251 25.625H14.8751V27.5833H50.1251V25.625ZM50.1251 29.5416H14.8751V41.2916C14.8751 42.3732 15.7519 43.25 16.8334 43.25H48.1667C49.2483 43.25 50.1251 42.3732 50.1251 41.2916V29.5416ZM50.1251 23.6666H14.8751V21.7083C14.8751 20.6267 15.7519 19.75 16.8334 19.75H48.1667C49.2483 19.75 50.1251 20.6267 50.1251 21.7083V23.6666ZM48.1667 33.4583H28.5834V35.4166H48.1667V33.4583ZM28.5834 37.375H42.2917V39.3333H28.5834V37.375Z" fill="#1D1D1B"/>
<mask id="mask0" mask-type="alpha" maskUnits="userSpaceOnUse" x="12" y="17" width="41" height="29">
<path fill-rule="evenodd" clip-rule="evenodd" d="M48.1667 17.7916H16.8334C14.6703 17.7916 12.9167 19.5452 12.9167 21.7083V23.6666H14.8751V25.625H12.9167V27.5833H14.8751V29.5416H12.9167V41.2916C12.9167 43.4547 14.6703 45.2083 16.8334 45.2083H48.1667C50.3299 45.2083 52.0834 43.4547 52.0834 41.2916V29.5416H50.1251V27.5833H52.0834V25.625H50.1251V23.6666H52.0834V21.7083C52.0834 19.5452 50.3299 17.7916 48.1667 17.7916ZM50.1251 25.625H14.8751V27.5833H50.1251V25.625ZM50.1251 29.5416H14.8751V41.2916C14.8751 42.3732 15.7519 43.25 16.8334 43.25H48.1667C49.2483 43.25 50.1251 42.3732 50.1251 41.2916V29.5416ZM50.1251 23.6666H14.8751V21.7083C14.8751 20.6267 15.7519 19.75 16.8334 19.75H48.1667C49.2483 19.75 50.1251 20.6267 50.1251 21.7083V23.6666ZM48.1667 33.4583H28.5834V35.4166H48.1667V33.4583ZM28.5834 37.375H42.2917V39.3333H28.5834V37.375Z" fill="white"/>
</mask>
<g mask="url(#mask0)">
<rect x="9" y="8" width="47" height="47" fill="white"/>
</g>
</svg>
