<?xml version="1.0" encoding="UTF-8"?>
<svg width="32px" height="32px" viewBox="0 0 32 32" version="1.1" xmlns="http://www.w3.org/2000/svg" xmlns:xlink="http://www.w3.org/1999/xlink">
    <!-- Generator: Sketch 55.2 (78181) - https://sketchapp.com -->
    <title>path-1</title>
    <desc>Created with Sketch.</desc>
    <g id="Page-1" stroke="none" stroke-width="1" fill="none" fill-rule="evenodd">
        <g id="home-E_01+Alertas" transform="translate(-762.000000, -668.000000)" fill="#FB7C40" fill-rule="nonzero">
            <g id="Group-15" transform="translate(656.000000, 639.000000)">
                <path d="M123.2,43.8 L128.8,43.8 C129.462742,43.8 130,44.3372582 130,45 C130,45.6627418 129.462742,46.2 128.8,46.2 L123.2,46.2 L123.2,51.8 C123.2,52.4627418 122.662742,53 122,53 C121.337258,53 120.8,52.4627418 120.8,51.8 L120.8,46.2 L115.2,46.2 C114.537258,46.2 114,45.6627418 114,45 C114,44.3372582 114.537258,43.8 115.2,43.8 L120.8,43.8 L120.8,38.2 C120.8,37.5372583 121.337258,37 122,37 C122.662742,37 123.2,37.5372583 123.2,38.2 L123.2,43.8 Z M122,29 C113.178,29 106,36.178 106,45 C106,53.822 113.178,61 122,61 C130.822,61 138,53.822 138,45 C138,36.178 130.822,29 122,29 Z M122,59.4 C114.06067,59.4 107.6,52.9393299 107.6,45 C107.6,37.0606701 114.06067,30.6 122,30.6 C129.93933,30.6 136.4,37.0606701 136.4,45 C136.4,52.9393299 129.93933,59.4 122,59.4 Z" id="path-1"></path>
            </g>
        </g>
    </g>
</svg>