<svg width="64" height="64" viewBox="0 0 64 64" fill="none" xmlns="http://www.w3.org/2000/svg">
<path fill-rule="evenodd" clip-rule="evenodd" d="M32 64C49.6731 64 64 49.6731 64 32C64 14.3269 49.6731 0 32 0C14.3269 0 0 14.3269 0 32C0 49.6731 14.3269 64 32 64Z" fill="#0079C7"/>
<path fill-rule="evenodd" clip-rule="evenodd" d="M26.7346 48.6686C27.7406 48.6686 28.6769 48.4654 29.5495 48.064H29.5507C30.0207 48.6686 30.6216 49.2719 31.2299 49.8729C29.8873 50.6806 28.3464 51.0821 26.7358 51.0821H26.1312C21.0325 51.0821 16.875 46.9209 16.875 41.8258V21.1728C16.875 16.0742 21.0325 11.9166 26.1312 11.9166H26.7321C31.8308 11.9166 35.9223 16.0742 35.8537 21.1728V25.9998C35.046 26.3364 34.2431 26.673 33.5051 27.0744V21.1728C33.5051 17.4204 30.487 14.3338 26.6661 14.3338H26.0615C22.309 14.3338 19.2224 17.3519 19.2224 21.1728V30.2908H29.7515C29.1469 31.0288 28.6108 31.8329 28.1408 32.6394H19.2909V41.8295C19.2909 45.5819 22.309 48.6686 26.13 48.6686H26.7346ZM28.6085 39.2802C28.6085 32.774 33.9055 27.477 40.4117 27.477C46.9178 27.477 52.2148 32.774 52.2148 39.2802C52.2148 45.7863 46.9178 51.0833 40.4117 51.0833C33.9055 51.0833 28.6085 45.7863 28.6085 39.2802ZM31.0255 39.2789C31.0255 34.0468 35.2515 29.8244 40.4799 29.8244C42.1554 29.8244 43.7 30.2944 45.1074 31.0336L33.7058 45.85C32.0303 44.1745 31.0242 41.8258 31.0242 39.2789H31.0255ZM35.5157 47.326C36.9232 48.1974 38.6024 48.7334 40.4113 48.7334C45.6434 48.7334 49.8657 44.4425 49.8657 39.2789C49.8657 36.5986 48.7263 34.1852 46.9174 32.4411L35.5157 47.326Z" fill="#1D1D1B"/>
<mask id="mask0" mask-type="alpha" maskUnits="userSpaceOnUse" x="16" y="11" width="37" height="41">
<path fill-rule="evenodd" clip-rule="evenodd" d="M26.7346 48.6686C27.7406 48.6686 28.6769 48.4654 29.5495 48.064H29.5507C30.0207 48.6686 30.6216 49.2719 31.2299 49.8729C29.8873 50.6806 28.3464 51.0821 26.7358 51.0821H26.1312C21.0325 51.0821 16.875 46.9209 16.875 41.8258V21.1728C16.875 16.0742 21.0325 11.9166 26.1312 11.9166H26.7321C31.8308 11.9166 35.9223 16.0742 35.8537 21.1728V25.9998C35.046 26.3364 34.2431 26.673 33.5051 27.0744V21.1728C33.5051 17.4204 30.487 14.3338 26.6661 14.3338H26.0615C22.309 14.3338 19.2224 17.3519 19.2224 21.1728V30.2908H29.7515C29.1469 31.0288 28.6108 31.8329 28.1408 32.6394H19.2909V41.8295C19.2909 45.5819 22.309 48.6686 26.13 48.6686H26.7346ZM28.6085 39.2802C28.6085 32.774 33.9055 27.477 40.4117 27.477C46.9178 27.477 52.2148 32.774 52.2148 39.2802C52.2148 45.7863 46.9178 51.0833 40.4117 51.0833C33.9055 51.0833 28.6085 45.7863 28.6085 39.2802ZM31.0255 39.2789C31.0255 34.0468 35.2515 29.8244 40.4799 29.8244C42.1554 29.8244 43.7 30.2944 45.1074 31.0336L33.7058 45.85C32.0303 44.1745 31.0242 41.8258 31.0242 39.2789H31.0255ZM35.5157 47.326C36.9232 48.1974 38.6024 48.7334 40.4113 48.7334C45.6434 48.7334 49.8657 44.4425 49.8657 39.2789C49.8657 36.5986 48.7263 34.1852 46.9174 32.4411L35.5157 47.326Z" fill="white"/>
</mask>
<g mask="url(#mask0)">
<rect x="11" y="8" width="47" height="47" fill="white"/>
</g>
</svg>
