<?xml version="1.0" encoding="UTF-8"?>
<svg width="37px" height="32px" viewBox="0 0 37 32" version="1.1" xmlns="http://www.w3.org/2000/svg" xmlns:xlink="http://www.w3.org/1999/xlink">
    <!-- Generator: Sketch 55.2 (78181) - https://sketchapp.com -->
    <title>health-programs copy</title>
    <desc>Created with Sketch.</desc>
    <g id="Page-1" stroke="none" stroke-width="1" fill="none" fill-rule="evenodd">
        <g id="home-E_01+Alertas" transform="translate(-551.000000, -669.000000)" fill="#00548B" fill-rule="nonzero">
            <g id="health-programs-copy" transform="translate(551.000000, 669.000000)">
                <path d="M4.48594771,17.9772203 C2.87777778,16.2701846 1.61421569,14.9045559 1.26960785,14.4493464 C-1.25751634,9.89725105 0.465522871,4.20713187 4.83055556,1.58967705 C7.47254903,-0.117358699 11.148366,-0.231161084 14.020098,1.13446751 C15.8580065,1.93108419 17.1215685,3.41051519 18.5,4.77614379 C19.6486928,3.63811996 20.7973856,2.27249134 22.2906863,1.47587467 C24.7029412,-0.00355633359 27.919281,-0.344963469 30.5612745,0.679257975 C34.811438,2.15868896 37.338562,6.59698193 36.879085,10.9214725 C36.4196079,10.6938677 35.8452614,10.5800654 35.270915,10.5800654 C35.0411764,10.5800654 34.6965685,10.6938677 34.4668301,10.6938677 C34.5816993,9.32823915 34.4668301,7.96261053 33.7776144,6.71078431 C32.5140523,4.20713187 29.6423204,2.50009611 26.7705882,2.72770088 C24.3583333,2.95530565 22.7501634,4.43473664 21.1419935,6.02797 C20.3379086,6.71078431 19.6486928,7.62120339 18.6148692,7.62120339 C17.5810458,7.62120339 17.0066993,7.05219147 16.3174836,6.36937716 C14.4795752,4.54853902 12.6416667,2.72770088 9.76993463,2.72770088 C5.86437908,2.72770088 2.53316993,6.02797 2.53316993,9.78344867 C2.53316993,12.0594963 3.68186275,13.7665321 5.29003268,15.3597654 C5.74950981,15.7011726 6.20898692,16.1563821 6.78333333,16.7253941 C5.86437908,16.9529988 5.06029412,17.2944059 4.48594771,17.9772203 Z M27.2300653,19.6842561 C27.6895426,20.3670703 28.3787581,20.9360823 29.1828431,21.5050941 C26.1962419,24.4639562 21.8312092,28.7884467 21.0271241,29.5850634 C20.3379086,30.2678778 19.6486928,31.1782968 18.5,31.1782968 C17.4661764,31.1782968 16.7769609,30.2678778 16.0877451,29.5850634 C15.628268,29.2436562 12.9862745,26.6262014 10.1145425,23.7811418 C10.8037582,23.0983275 11.2632353,22.3017108 11.3781046,21.2774895 C14.5944444,24.4639562 17.9256537,27.6504229 18.5,28.2194349 C20.567647,26.0571895 24.2434641,22.643118 27.2300653,19.6842561 Z M35.1560458,12.8561131 C36.075,12.8561131 36.7642157,13.5389274 36.7642157,14.4493464 C36.7642157,15.3597654 35.9601308,16.1563821 35.0411764,16.1563821 C34.6965685,16.1563821 34.3519609,16.0425798 34.007353,15.8149751 L32.2843137,16.9529988 C32.3991831,17.0668013 32.3991831,17.2944059 32.3991831,17.4082084 C32.3991831,18.3186275 31.5950981,19.1152441 30.6761438,19.1152441 C29.7571896,19.1152441 28.9531046,18.3186275 28.9531046,17.4082084 C28.9531046,17.1806036 28.9531046,16.9529988 29.0679738,16.7253941 L25.7367648,13.7665321 C25.5070262,13.8803346 25.1624183,13.9941369 24.9326796,13.9941369 C24.7029412,13.9941369 24.4732026,13.9941369 24.2434641,13.8803346 L19.9933007,18.5462323 C20.1081699,18.773837 20.2230391,19.1152441 20.2230391,19.342849 C20.2230391,20.253268 19.4189542,21.0498846 18.5,21.0498846 C17.5810458,21.0498846 16.7769609,20.253268 16.7769609,19.342849 C16.7769609,19.1152441 16.7769609,19.0014418 16.8918301,18.773837 L13.3308824,15.8149751 C13.1011438,15.9287774 12.7565359,16.0425798 12.4119281,16.0425798 C12.1821895,16.0425798 12.0673203,16.0425798 11.8375817,15.9287774 L8.85098039,19.7980585 C8.96584968,20.0256631 9.08071896,20.3670703 9.08071896,20.7084775 C9.08071896,21.6188967 8.27663398,22.4155133 7.35767974,22.4155133 C6.78333333,22.4155133 6.3238562,22.1879085 5.97924836,21.732699 L3.45212419,22.4155133 C3.33725491,23.21213 2.64803921,23.8949442 1.72908498,23.8949442 C0.810130718,23.8949442 0.00604574244,23.0983275 0.00604574244,22.1879085 C0.00604574244,21.2774895 0.810130718,20.4808728 1.72908498,20.4808728 C2.41830065,20.4808728 2.87777778,20.8222798 3.22238562,21.2774895 L5.63464053,20.7084775 C5.74950981,19.7980585 6.43872549,19.1152441 7.35767974,19.1152441 C7.58741831,19.1152441 7.70228759,19.1152441 7.93202614,19.2290465 L10.9186275,15.3597654 C10.8037582,15.1321608 10.6888889,14.7907536 10.6888889,14.4493464 C10.6888889,13.5389274 11.4929739,12.7423107 12.4119281,12.7423107 C13.3308824,12.7423107 14.1349673,13.5389274 14.1349673,14.4493464 C14.1349673,14.6769513 14.1349673,14.7907536 14.020098,15.0183582 L17.5810458,17.9772203 C17.8107843,17.863418 18.1553921,17.7496156 18.5,17.7496156 C18.7297386,17.7496156 18.9594771,17.7496156 19.1892157,17.863418 L23.4393792,13.1975202 C23.3245097,12.9699154 23.2096405,12.6285082 23.2096405,12.4009035 C23.2096405,11.4904844 24.0137255,10.6938677 24.9326796,10.6938677 C25.851634,10.6938677 26.655719,11.4904844 26.655719,12.4009035 C26.655719,12.6285082 26.655719,12.8561131 26.5408498,13.0837177 L29.7571896,16.0425798 C29.986928,15.9287774 30.2166667,15.8149751 30.5612745,15.8149751 C30.9058824,15.8149751 31.3653595,15.9287774 31.5950981,16.1563821 L33.4330065,15.0183582 C33.4330065,14.7907536 33.4330065,14.6769513 33.4330065,14.5631487 C33.4330065,13.6527297 34.2370914,12.8561131 35.1560458,12.8561131 Z" id="path-1"></path>
            </g>
        </g>
    </g>
</svg>