<?xml version="1.0" encoding="UTF-8"?>
<svg width="27px" height="32px" viewBox="0 0 27 32" version="1.1" xmlns="http://www.w3.org/2000/svg" xmlns:xlink="http://www.w3.org/1999/xlink">
    <!-- Generator: Sketch 55.2 (78181) - https://sketchapp.com -->
    <title>documentation</title>
    <desc>Created with Sketch.</desc>
    <defs>
        <path d="M748.4362,691.0658 C748.4362,691.29505 748.2052,691.44905 748.05295,691.44905 L742.73645,691.44905 L742.73645,686.2428 L746.4447,686.2428 L746.4447,685.0178 L742.73645,685.0178 L742.73645,683.1803 L746.4447,683.1803 L746.4447,681.9553 L742.73645,681.9553 L742.73645,681.6053 C742.73645,681.37605 742.6612,681.14505 742.5072,680.9928 L741.5552,680.0408 L746.4447,680.0408 L746.4447,678.8158 L740.3302,678.8158 L738.4157,676.9013 L736.9947,675.4803 C736.84245,675.3263 736.61145,675.25105 736.3822,675.25105 L732.0527,675.25105 L732.0527,669.93455 C732.0527,669.7053 732.20495,669.5513 732.4342,669.5513 L742.54045,669.5513 C742.77145,669.5513 742.9237,669.7053 742.9237,669.93455 L742.9237,674.06805 C742.9237,674.6823 743.3822,675.1408 743.9947,675.1408 L748.05295,675.1408 C748.2822,675.1408 748.4362,675.29305 748.4362,675.52405 L748.4362,691.0658 Z M740.51745,680.7618 L740.51745,680.8388 L740.44045,680.7618 L737.53195,680.7618 C737.3027,680.7618 737.1487,680.60955 737.1487,680.3803 L737.1487,677.47005 L740.44045,680.7618 L740.51745,680.7618 Z M741.4362,698.0658 C741.4362,698.29505 741.2052,698.44905 741.05295,698.44905 L725.4342,698.44905 C725.20495,698.44905 725.0527,698.29505 725.0527,698.0658 L725.0527,676.93455 C725.0527,676.7053 725.20495,676.5513 725.4342,676.5513 L735.54045,676.5513 C735.77145,676.5513 735.9237,676.7053 735.9237,676.93455 L735.9237,681.06805 C735.9237,681.6823 736.3822,682.1408 736.9947,682.1408 L741.05295,682.1408 C741.2822,682.1408 741.4362,682.29305 741.4362,682.52405 L741.4362,698.0658 Z M744.1487,670.47005 L747.44045,673.7618 L747.51745,673.7618 L747.51745,673.8388 L747.44045,673.7618 L744.53195,673.7618 C744.3027,673.7618 744.1487,673.60955 744.1487,673.3803 L744.1487,670.47005 Z M749.5072,673.9928 L743.9947,668.4803 C743.84245,668.3263 743.61145,668.25105 743.3822,668.25105 L731.9757,668.25105 C731.2862,668.25105 730.7507,668.78655 730.7507,669.4743 L730.7507,675.25105 L724.9757,675.25105 C724.2862,675.25105 723.7507,675.78655 723.7507,676.4743 L723.7507,698.52605 C723.7507,699.2138 724.2862,699.75105 724.9757,699.75105 L741.5132,699.75105 C742.20095,699.75105 742.73645,699.2138 742.73645,698.52605 L742.73645,692.75105 L748.5132,692.75105 C749.20095,692.75105 749.73645,692.2138 749.73645,691.52605 L749.73645,674.6053 C749.73645,674.37605 749.6612,674.14505 749.5072,673.9928 L749.5072,673.9928 Z M726.8895,693.2435 L739.44575,693.2435 L739.44575,692.0185 L726.8895,692.0185 L726.8895,693.2435 Z M726.8895,696.38125 L732.86225,696.38125 L732.86225,695.158 L726.8895,695.158 L726.8895,696.38125 Z M726.8895,680.7625 L734.01025,680.7625 L734.01025,679.5375 L726.8895,679.5375 L726.8895,680.7625 Z M726.8895,683.902 L734.01025,683.902 L734.01025,682.677 L726.8895,682.677 L726.8895,683.902 Z M726.8895,687.0415 L739.44575,687.0415 L739.44575,685.8165 L726.8895,685.8165 L726.8895,687.0415 Z M726.8895,690.181 L739.44575,690.181 L739.44575,688.956 L726.8895,688.956 L726.8895,690.181 Z M737.192625,675.676125 L738.415875,676.901125 L741.009375,676.901125 L741.009375,675.676125 L737.192625,675.676125 Z M733.8895,673.7625 L741.0085,673.7625 L741.0085,672.5375 L733.8895,672.5375 L733.8895,673.7625 Z" id="path-1"></path>
    </defs>
    <g id="Page-1" stroke="none" stroke-width="1" fill="none" fill-rule="evenodd">
        <g id="home-E_01+Alertas" transform="translate(-723.000000, -668.000000)">
            <mask id="mask-2" fill="white">
                <use xlink:href="#path-1"></use>
            </mask>
            <use id="documentation" fill="#A4219B" xlink:href="#path-1"></use>
        </g>
    </g>
</svg>