<svg width="64" height="64" viewBox="0 0 64 64" fill="none" xmlns="http://www.w3.org/2000/svg">
<path fill-rule="evenodd" clip-rule="evenodd" d="M32 64C49.6731 64 64 49.6731 64 32C64 14.3269 49.6731 0 32 0C14.3269 0 0 14.3269 0 32C0 49.6731 14.3269 64 32 64Z" fill="#0079C7"/>
<path fill-rule="evenodd" clip-rule="evenodd" d="M32 52C20.9543 52 12 43.0457 12 32C12 20.9543 20.9543 12 32 12C43.0457 12 52 20.9543 52 32C52 43.0457 43.0457 52 32 52ZM32 50C41.9411 50 50 41.9411 50 32C50 22.0589 41.9411 14 32 14C22.0589 14 14 22.0589 14 32C14 41.9411 22.0589 50 32 50ZM33.0613 30.4381C33.9389 30.6567 34.6919 30.9178 35.3325 31.2188C35.9688 31.52 36.4963 31.8713 36.915 32.265C37.3325 32.6637 37.6413 33.1125 37.8413 33.6125C38.0413 34.1125 38.1388 34.6787 38.1388 35.3075C38.1388 35.9525 38.0175 36.55 37.7788 37.1087C37.54 37.6637 37.2013 38.1512 36.7588 38.57C36.3213 38.9875 35.7938 39.3312 35.1763 39.5975C34.5588 39.8638 33.875 40.0387 33.1213 40.1213V42.075C33.1213 42.1837 33.0825 42.2738 33.0075 42.34C32.9325 42.4062 32.84 42.4412 32.73 42.4412H31.23C31.1325 42.4412 31.0462 42.4062 30.9725 42.34C30.8988 42.27 30.8587 42.1837 30.8587 42.075V40.0787C29.8587 39.9425 28.9137 39.6725 28.0225 39.2662C27.1313 38.8637 26.2688 38.305 25.4325 37.59C25.3625 37.5238 25.3225 37.4375 25.3075 37.3438C25.2925 37.2463 25.3188 37.16 25.39 37.0788L26.4375 35.6612C26.465 35.6187 26.5037 35.5875 26.5513 35.56C26.5988 35.5325 26.6488 35.5175 26.7038 35.5175C26.7587 35.5063 26.8088 35.5063 26.8562 35.5287C26.9025 35.5487 26.95 35.58 26.9888 35.6225C27.66 36.2237 28.3125 36.6925 28.9425 37.0212C29.5725 37.35 30.2313 37.5688 30.915 37.6775V32.5562C30.0362 32.3212 29.2825 32.06 28.6537 31.7638C28.025 31.4713 27.505 31.1237 27.1025 30.725C26.6962 30.3263 26.3988 29.8775 26.2075 29.3775C26.0163 28.8775 25.9187 28.3112 25.9187 27.6825C25.9187 27.0375 26.04 26.4437 26.2775 25.905C26.5163 25.3625 26.8513 24.885 27.285 24.4675C27.7188 24.05 28.2375 23.71 28.8475 23.4475C29.4575 23.1862 30.125 23.0212 30.8512 22.955V21.9475C30.8512 21.8375 30.89 21.745 30.965 21.67C31.04 21.595 31.125 21.5562 31.2225 21.5562H32.7225C32.8313 21.5562 32.9263 21.595 33 21.67C33.0737 21.745 33.1138 21.8375 33.1138 21.9475V23.0175C33.895 23.1275 34.6338 23.3375 35.3325 23.6462C36.0312 23.955 36.7425 24.385 37.4688 24.9312C37.5513 25.0012 37.5975 25.0837 37.6138 25.1887C37.625 25.29 37.5987 25.3837 37.5312 25.4662L36.5312 26.8612C36.5037 26.9162 36.465 26.9587 36.4175 26.9862C36.37 27.0137 36.32 27.0287 36.265 27.0287C36.21 27.0437 36.16 27.04 36.1125 27.0175C36.065 26.9975 36.0188 26.975 35.98 26.9475C35.5263 26.565 35.0625 26.2487 34.5812 26.0025C34.1 25.7562 33.5925 25.565 33.0613 25.4287V30.4381ZM30.9213 29.9025V25.2975C30.1825 25.38 29.5925 25.6213 29.1513 26.0275C28.7138 26.4338 28.495 26.93 28.495 27.52C28.495 27.9738 28.62 28.3988 28.8663 28.805C29.1088 29.2075 29.7963 29.575 30.9213 29.9025ZM33.0613 37.7772C33.0604 37.7773 33.0596 37.7774 33.0588 37.7775L33.0613 37.7787V37.7772ZM33.0613 37.7772C33.8263 37.6795 34.4342 37.4295 34.8787 37.0162C35.3237 36.6062 35.5462 36.09 35.5462 35.4737C35.5462 34.9262 35.3937 34.4625 35.085 34.0875C34.7763 33.7125 34.1 33.3725 33.0613 33.0675V37.7772Z" fill="white"/>
</svg>
